<svg xmlns="http://www.w3.org/2000/svg" viewBox="0 0 200 200" width="100%" height="100%">
    <g stroke="#1a1a1a" stroke-width="5" stroke-linecap="round">
        <line x1="70" y1="74" x2="130" y2="74" />
        <line x1="40" y1="126" x2="160" y2="126" />
        <line x1="10" y1="178" x2="190" y2="178" />
        
        <line x1="100" y1="22" x2="190" y2="178" />
        <line x1="70" y1="74" x2="130" y2="178" />
        <line x1="40" y1="126" x2="70" y2="178" />
        
        <line x1="100" y1="22" x2="10" y2="178" />
        <line x1="130" y1="74" x2="70" y2="178" />
        <line x1="160" y1="126" x2="130" y2="178" />
    </g>
    <g fill="#1a1a1a">
        <circle cx="100" cy="22" r="14" />
        <circle cx="70" cy="74" r="14" />
        <circle cx="130" cy="74" r="14" />
        <circle cx="40" cy="126" r="14" />
        <circle cx="100" cy="126" r="14" />
        <circle cx="160" cy="126" r="14" />
        <circle cx="10" cy="178" r="14" />
        <circle cx="70" cy="178" r="14" />
        <circle cx="130" cy="178" r="14" />
        <circle cx="190" cy="178" r="14" />
    </g>
</svg>
